<?xml version="1.0" encoding="utf-8"?>
<!-- Generator: Adobe Illustrator 26.0.1, SVG Export Plug-In . SVG Version: 6.00 Build 0)  -->
<svg version="1.1" id="Layer_1" xmlns="http://www.w3.org/2000/svg" xmlns:xlink="http://www.w3.org/1999/xlink" x="0px" y="0px"
	 viewBox="0 0 595.28 761.74" style="enable-background:new 0 0 595.28 761.74;" xml:space="preserve">
<style type="text/css">
	.st0{fill:#FFFFFF;}
</style>
<path class="st0" d="M334.9,498.31H217.88c-7.76,0-15.2,3.07-20.68,8.53c-5.48,5.46-8.57,12.88-8.57,20.6
	c0,7.73,3.09,15.14,8.57,20.6c5.48,5.46,12.92,8.53,20.68,8.53H334.9c7.77,0,15.21-3.07,20.69-8.53c5.48-5.46,8.57-12.88,8.57-20.6
	c0-7.73-3.09-15.14-8.57-20.6C350.11,501.38,342.66,498.31,334.9,498.31z M451.91,206.97H417.4c-6.04-17-17.2-31.72-31.97-42.16
	c-14.78-10.43-32.42-16.06-50.53-16.11h-58.5c-18.11,0.05-35.75,5.67-50.53,16.11c-14.77,10.44-25.93,25.16-31.97,42.16h-34.51
	c-23.28,0-45.6,9.21-62.06,25.6c-16.46,16.39-25.71,38.62-25.71,61.8v349.62c0,23.18,9.25,45.41,25.71,61.8
	c16.46,16.39,38.78,25.6,62.06,25.6h292.53c23.28,0,45.6-9.21,62.06-25.6c16.46-16.39,25.71-38.62,25.71-61.8V294.37
	c0-23.18-9.25-45.41-25.71-61.8C497.52,216.17,475.19,206.97,451.91,206.97L451.91,206.97z M247.14,236.1
	c0-7.73,3.09-15.14,8.57-20.6c5.48-5.46,12.92-8.53,20.69-8.53h58.5c7.77,0,15.21,3.07,20.69,8.53c5.48,5.46,8.57,12.88,8.57,20.6
	v29.13H247.14V236.1z M481.17,643.98c0,7.73-3.09,15.14-8.57,20.6c-5.48,5.46-12.92,8.53-20.69,8.53H159.38
	c-7.77,0-15.21-3.07-20.69-8.53c-5.48-5.46-8.57-12.88-8.57-20.6V294.37c0-7.73,3.09-15.14,8.57-20.6
	c5.48-5.46,12.92-8.53,20.69-8.53h29.25v29.13c0,7.73,3.09,15.14,8.57,20.6c5.48,5.46,12.92,8.53,20.68,8.53h175.53
	c7.76,0,15.2-3.07,20.68-8.53c5.48-5.46,8.57-12.88,8.57-20.6v-29.13h29.25c7.77,0,15.21,3.07,20.69,8.53
	c5.48,5.46,8.57,12.88,8.57,20.6V643.98z M393.42,381.77H217.88c-7.76,0-15.2,3.07-20.68,8.53c-5.48,5.46-8.57,12.88-8.57,20.6
	c0,7.73,3.09,15.14,8.57,20.6c5.48,5.46,12.92,8.53,20.68,8.53h175.53c7.76,0,15.2-3.07,20.68-8.53c5.48-5.46,8.57-12.88,8.57-20.6
	c0-7.73-3.09-15.14-8.57-20.6C408.61,384.84,401.17,381.77,393.42,381.77z"/>
</svg>
